Sprint_05400001_forces_filt100Hz.mot
version=1
nRows=33
nColumns=19
inDegrees=yes
endheader
time	R_ground_force_vx	R_ground_force_vy	R_ground_force_vz	R_ground_force_px	R_ground_force_py	R_ground_force_pz	R_ground_torque_x	R_ground_torque_y	R_ground_torque_z	L_ground_force_vx	L_ground_force_vy	L_ground_force_vz	L_ground_force_px	L_ground_force_py	L_ground_force_pz	L_ground_torque_x	L_ground_torque_y	L_ground_torque_z	
1.809500	-344.357761	1902.863729	-16.916924	  0.956229	  0.000000	 -0.256486	  0.000000	 86.237314	  0.000000	  0.000000	  0.000000	  0.000000	  0.273507	  0.000000	 -0.336728	  0.000000	  0.000000	  0.000000
1.810000	-377.341296	1884.299070	 -3.827531	  0.955222	  0.000000	 -0.256157	  0.000000	 77.401723	  0.000000	  0.000000	  0.000000	  0.000000	  0.275190	  0.000000	 -0.337085	  0.000000	  0.000000	  0.000000
1.810500	-409.534452	1866.821229	  9.304666	  0.954172	  0.000000	 -0.255828	  0.000000	 68.347355	  0.000000	  0.000000	  0.000000	  0.000000	  0.276907	  0.000000	 -0.337410	  0.000000	  0.000000	  0.000000
1.811000	-440.577678	1850.733150	 22.577762	  0.953005	  0.000000	 -0.255428	  0.000000	 59.090148	  0.000000	  0.000000	  0.000000	  0.000000	  0.278625	  0.000000	 -0.337734	  0.000000	  0.000000	  0.000000
1.811500	-470.027460	1836.305409	 36.019557	  0.951679	  0.000000	 -0.254901	  0.000000	 49.681464	  0.000000	  0.000000	  0.000000	  0.000000	  0.280342	  0.000000	 -0.338058	  0.000000	  0.000000	  0.000000
1.812000	-497.389722	1823.747602	 49.562866	  0.950185	  0.000000	 -0.254223	  0.000000	 40.218226	  0.000000	  0.000000	  0.000000	  0.000000	  0.282060	  0.000000	 -0.338382	  0.000000	  0.000000	  0.000000
1.812500	-522.174321	1813.181941	 63.049848	  0.948550	  0.000000	 -0.253408	  0.000000	 30.835903	  0.000000	  0.000000	  0.000000	  0.000000	  0.283777	  0.000000	 -0.338707	  0.000000	  0.000000	  0.000000
1.813000	-543.955223	1804.633501	 76.268817	  0.946830	  0.000000	 -0.252498	  0.000000	 21.689938	  0.000000	  0.000000	  0.000000	  0.000000	  0.285495	  0.000000	 -0.339031	  0.000000	  0.000000	  0.000000
1.813500	-562.416944	1798.048989	 89.012338	  0.945109	  0.000000	 -0.251554	  0.000000	 12.931927	  0.000000	  0.000000	  0.000000	  0.000000	  0.287213	  0.000000	 -0.339355	  0.000000	  0.000000	  0.000000
1.814000	-577.377548	1793.340997	101.139003	  0.943492	  0.000000	 -0.250627	  0.000000	  4.684956	  0.000000	  0.000000	  0.000000	  0.000000	  0.288930	  0.000000	 -0.339679	  0.000000	  0.000000	  0.000000
1.814500	-588.787849	1790.439344	112.615288	  0.942094	  0.000000	 -0.249750	  0.000000	 -2.978034	  0.000000	  0.000000	  0.000000	  0.000000	  0.290648	  0.000000	 -0.340003	  0.000000	  0.000000	  0.000000
1.815000	-596.711437	1789.332850	123.526121	  0.941030	  0.000000	 -0.248926	  0.000000	-10.049295	  0.000000	  0.000000	  0.000000	  0.000000	  0.292365	  0.000000	 -0.340328	  0.000000	  0.000000	  0.000000
1.815500	-601.294613	1790.086408	134.053890	  0.940397	  0.000000	 -0.248134	  0.000000	-16.590977	  0.000000	  0.000000	  0.000000	  0.000000	  0.294112	  0.000000	 -0.340592	  0.000000	  0.000000	  0.000000
1.816000	-602.735055	1792.833649	144.431017	  0.940254	  0.000000	 -0.247344	  0.000000	-22.728326	  0.000000	  0.000000	  0.000000	  0.000000	  0.295859	  0.000000	 -0.340857	  0.000000	  0.000000	  0.000000
1.816500	-601.258604	1797.760629	154.877339	  0.940604	  0.000000	 -0.246530	  0.000000	-28.631729	  0.000000	  0.000000	  0.000000	  0.000000	  0.297606	  0.000000	 -0.341122	  0.000000	  0.000000	  0.000000
1.817000	-597.108955	1805.089724	165.534308	  0.941398	  0.000000	 -0.245695	  0.000000	-34.489726	  0.000000	  0.000000	  0.000000	  0.000000	  0.299353	  0.000000	 -0.341386	  0.000000	  0.000000	  0.000000
1.817500	-590.550160	1815.066840	176.409262	  0.942547	  0.000000	 -0.244881	  0.000000	-40.478195	  0.000000	  0.000000	  0.000000	  0.000000	  0.301099	  0.000000	 -0.341651	  0.000000	  0.000000	  0.000000
1.818000	-581.878455	1827.948225	187.344917	  0.943951	  0.000000	 -0.244172	  0.000000	-46.728947	  0.000000	  0.000000	  0.000000	  0.000000	  0.302846	  0.000000	 -0.341916	  0.000000	  0.000000	  0.000000
1.818500	-571.437061	1843.976807	198.031987	  0.945531	  0.000000	 -0.243684	  0.000000	-53.299742	  0.000000	  0.000000	  0.000000	  0.000000	  0.304593	  0.000000	 -0.342180	  0.000000	  0.000000	  0.000000
1.819000	-559.626909	1863.348756	208.069828	  0.947247	  0.000000	 -0.243539	  0.000000	-60.150088	  0.000000	  0.000000	  0.000000	  0.000000	  0.306340	  0.000000	 -0.342445	  0.000000	  0.000000	  0.000000
1.819500	-546.905378	1886.181429	217.066948	  0.949099	  0.000000	 -0.243837	  0.000000	-67.130008	  0.000000	  0.000000	  0.000000	  0.000000	  0.308086	  0.000000	 -0.342710	  0.000000	  0.000000	  0.000000
1.820000	-533.766953	1912.484448	224.757265	  0.951113	  0.000000	 -0.244624	  0.000000	-73.987562	  0.000000	  0.000000	  0.000000	  0.000000	  0.309833	  0.000000	 -0.342974	  0.000000	  0.000000	  0.000000
1.820500	-520.701478	1942.127290	231.091175	  0.953309	  0.000000	 -0.245863	  0.000000	-80.396966	  0.000000	  0.000000	  0.000000	  0.000000	  0.311583	  0.000000	 -0.343360	  0.000000	  0.000000	  0.000000
1.821000	-508.137976	1974.802612	236.273382	  0.955666	  0.000000	 -0.247431	  0.000000	-86.001882	  0.000000	  0.000000	  0.000000	  0.000000	  0.313332	  0.000000	 -0.343746	  0.000000	  0.000000	  0.000000
1.821500	-496.394216	2009.990344	240.731435	  0.958101	  0.000000	 -0.249129	  0.000000	-90.462157	  0.000000	  0.000000	  0.000000	  0.000000	  0.315082	  0.000000	 -0.344133	  0.000000	  0.000000	  0.000000
1.822000	-485.650878	2046.944349	245.020405	  0.960464	  0.000000	 -0.250716	  0.000000	-93.494141	  0.000000	  0.000000	  0.000000	  0.000000	  0.316831	  0.000000	 -0.344519	  0.000000	  0.000000	  0.000000
1.822500	-475.968721	2084.739778	249.690359	  0.962559	  0.000000	 -0.251952	  0.000000	-94.899022	  0.000000	  0.000000	  0.000000	  0.000000	  0.318580	  0.000000	 -0.344905	  0.000000	  0.000000	  0.000000
1.823000	-467.345574	2122.386931	255.144184	  0.964181	  0.000000	 -0.252650	  0.000000	-94.579239	  0.000000	  0.000000	  0.000000	  0.000000	  0.320330	  0.000000	 -0.345291	  0.000000	  0.000000	  0.000000
1.823500	-459.788189	2158.986019	261.515835	  0.965165	  0.000000	 -0.252707	  0.000000	-92.545479	  0.000000	  0.000000	  0.000000	  0.000000	  0.322079	  0.000000	 -0.345677	  0.000000	  0.000000	  0.000000
1.824000	-453.371637	2193.872989	268.593426	  0.965427	  0.000000	 -0.252128	  0.000000	-88.912399	  0.000000	  0.000000	  0.000000	  0.000000	  0.323829	  0.000000	 -0.346063	  0.000000	  0.000000	  0.000000
1.824500	-448.255757	2226.680276	275.807526	  0.964976	  0.000000	 -0.251020	  0.000000	-83.878018	  0.000000	  0.000000	  0.000000	  0.000000	  0.325578	  0.000000	 -0.346449	  0.000000	  0.000000	  0.000000
1.825000	-444.652341	2257.294402	282.293074	  0.963906	  0.000000	 -0.249567	  0.000000	-77.688088	  0.000000	  0.000000	  0.000000	  0.000000	  0.327328	  0.000000	 -0.346836	  0.000000	  0.000000	  0.000000
1.825500	-442.760048	2285.749441	287.021315	  0.962363	  0.000000	 -0.247999	  0.000000	-70.593546	  0.000000	  0.000000	  0.000000	  0.000000	  0.329131	  0.000000	 -0.347167	  0.000000	  0.000000	  0.000000
